# xmcd
#
# Track frame offsets: 
#        150
#        12338
#        26019
#        38491
#        50713
#        65078
#        78069
#        90817
#        105696
#        119085
#        132261
#        145541
#        158768
#        172034
#        185581
#        197820
#        210272
#        224293
#        238996
#        252320
#
# Disc length: 3552 seconds
#
# Revision: 1
# Processed by: cddbd v1.5.2PL0 Copyright (c) Steve Scherf et al.
# Submitted via: ExactAudioCopyFreeDBPlugin 1.0
#
DISCID=170dde14
DTITLE=Ma Rainey -  Complete Recorded Works Vol. 3 (1925-1926)
DYEAR=1997
DGENRE=Blues
TTITLE0=Slave to the Blues
TTITLE1=Yonder Come the Blues
TTITLE2=Titanic Man Blues [take 1]
TTITLE3=Titanic Man Blues [take 2]
TTITLE4=Chain Gang Blues
TTITLE5=Bessemer Bound Blues [take 1]
TTITLE6=Bessemer Bound Blues [take 2]
TTITLE7=Oh My Babe Blues
TTITLE8=Wringing and Twisting Blues
TTITLE9=Stack O'Lee Blues
TTITLE10=Broken Hearted Blues
TTITLE11=Jealousy Blues
TTITLE12=Seeking Blues [take 1]
TTITLE13=Seeking Blues [take 2]
TTITLE14=Mountain Jack Blues [take 1]
TTITLE15=Mountain Jack Blues [take 3]
TTITLE16=Down in the Basement
TTITLE17=Sissy Blues
TTITLE18=Broken Soul Blues
TTITLE19=Trust No Man
EXTD=
EXTT0=
EXTT1=
EXTT2=
EXTT3=
EXTT4=
EXTT5=
EXTT6=
EXTT7=
EXTT8=
EXTT9=
EXTT10=
EXTT11=
EXTT12=
EXTT13=
EXTT14=
EXTT15=
EXTT16=
EXTT17=
EXTT18=
EXTT19=
PLAYORDER=
